<svg xmlns="http://www.w3.org/2000/svg" viewBox="0 0 240.58 434.19"><defs><style>.cls-1{fill:#84bf43;}.cls-2{fill:#05a9cd;}</style></defs><g id="Layer_2" data-name="Layer 2"><g id="Layer_1-2" data-name="Layer 1"><path class="cls-1" d="M116.83,127.55q1.67.12,3.27.09c1.07,0,2.11-.09,3.14-.2s2-.27,3-.46,1.94-.42,2.88-.68,1.85-.56,2.75-.89,1.77-.68,2.63-1.07,1.69-.78,2.5-1.21,1.61-.88,2.38-1.34,1.53-1,2.26-1.5,1.44-1.1,2.13-1.7,1.36-1.24,2-1.91,1.28-1.37,1.89-2.11,1.19-1.51,1.76-2.32,1.11-1.65,1.64-2.52,1-1.79,1.52-2.73,1-1.93,1.4-2.94c.43-1.89.78-3.75,1-5.55s.44-3.57.54-5.28.1-3.38,0-5a44.21,44.21,0,0,0-.46-4.71,38.53,38.53,0,0,0-.94-4.4A33.81,33.81,0,0,0,152.8,75a32.76,32.76,0,0,0-1.87-3.75,32,32,0,0,0-2.33-3.41,31,31,0,0,0-6-5.74A33.48,33.48,0,0,0,139,59.82a38.87,38.87,0,0,0-4.06-1.92,41.69,41.69,0,0,0-4.46-1.53,49.43,49.43,0,0,0-4.86-1.11q-2.52-.45-5.25-.69c-1.81-.16-3.69-.24-5.63-.25H96.83l-2.21,0H88.07l-2.18,0-2.18,0-2.19-.07-2.2-.09c-.57,0-1.12,0-1.64,0s-1,0-1.5.06-.93.1-1.36.17a11.1,11.1,0,0,0-1.23.27,9.46,9.46,0,0,0-1.1.37,8.72,8.72,0,0,0-1,.47,7.6,7.6,0,0,0-.86.58,6.1,6.1,0,0,0-.74.69,6.23,6.23,0,0,0-.64.8,7.89,7.89,0,0,0-.53.9,9.46,9.46,0,0,0-.43,1A11.33,11.33,0,0,0,68,60.58c-.09.4-.17.81-.24,1.24s-.12.89-.16,1.36-.07,1-.08,1.47,0,1,0,1.58l.06,4c0,1.32,0,2.64,0,4l0,4c0,1.33,0,2.65,0,4v4c0,1.33,0,2.65,0,4s0,2.64,0,4,0,2.65,0,4,0,2.64,0,4,0,2.64,0,4v4c0,1.32,0,2.64,0,4s0,2.64,0,4l0,4,.06,4c0,1.32.05,2.64.08,4,0,.6,0,1.17,0,1.72s0,1.08-.08,1.58-.1,1-.17,1.46-.17.9-.27,1.32A12.32,12.32,0,0,1,66.9,137a10.64,10.64,0,0,1-.47,1.08,7.64,7.64,0,0,1-.58,1,7,7,0,0,1-.69.84,8,8,0,0,1-.8.73,8.78,8.78,0,0,1-.93.61,8.47,8.47,0,0,1-1,.5c-.37.15-.77.28-1.18.4s-.86.21-1.32.29-.94.13-1.45.18-1,.07-1.6.08-1.14,0-1.74,0l-2.77-.09-2.76-.08-2.77-.06-2.76,0-2.77,0-2.76,0H33l-2.76,0-2.77,0-2.77,0-2.76,0-2.77.06-2.77.06-2.76.06-2.77.07c-.47,0-.93,0-1.37,0s-.86,0-1.26-.08-.79-.09-1.16-.15-.71-.14-1-.23a8.82,8.82,0,0,1-1-.32,7.07,7.07,0,0,1-1.6-.88,5.27,5.27,0,0,1-.66-.58,5.09,5.09,0,0,1-.57-.66,6.75,6.75,0,0,1-.89-1.62,8.31,8.31,0,0,1-.32-1q-.13-.49-.24-1c-.07-.37-.12-.76-.17-1.16s-.07-.83-.09-1.27,0-.89,0-1.37c0-2.55,0-5.1,0-7.65l0-7.65,0-7.66q0-3.83,0-7.65t0-7.65q0-3.82,0-7.66t0-7.65V63.47q0-3.82,0-7.65t0-7.65q0-3.83,0-7.65l0-7.66,0-7.65c0-2.55,0-5.1-.05-7.65s0-5.11,0-7.66c0-.5,0-1,0-1.45s.06-.89.12-1.31A10.15,10.15,0,0,1,.79,6a9.18,9.18,0,0,1,.29-1A7.07,7.07,0,0,1,1.47,4a6.32,6.32,0,0,1,.46-.81,5.44,5.44,0,0,1,.56-.69,5.09,5.09,0,0,1,.63-.6,7,7,0,0,1,.72-.49A6,6,0,0,1,4.64,1,8.57,8.57,0,0,1,5.53.68a9.16,9.16,0,0,1,1-.25c.33-.07.68-.13,1-.18S8.28.16,8.67.13L9.88.06h1.28l9,0,9,0H47.31l9,0,9,0,9,0H92.49l9,0,9,0q4.52,0,9,.06c3,0,6,.06,9,.09l9,.13,9,.17,9,.22q3.18.08,6.28.44c2.07.23,4.11.56,6.12,1s4,.9,6,1.47,3.87,1.23,5.75,2,3.73,1.54,5.53,2.42,3.57,1.84,5.29,2.86,3.4,2.11,5,3.27,3.22,2.37,4.75,3.65,3,2.63,4.44,4,2.81,2.85,4.13,4.36,2.57,3.07,3.77,4.69,2.34,3.27,3.42,5,2.08,3.46,3,5.25,1.81,3.63,2.62,5.51,1.53,3.78,2.19,5.73,1.23,3.92,1.73,5.93c.6,2.37,1.11,4.74,1.53,7.09s.76,4.69,1,7,.42,4.62.51,6.9.09,4.54,0,6.77-.24,4.45-.47,6.63-.56,4.33-1,6.46-.87,4.21-1.42,6.26-1.19,4.08-1.9,6.07-1.49,3.92-2.35,5.83-1.8,3.77-2.81,5.58-2.09,3.59-3.25,5.32-2.39,3.4-3.69,5-2.68,3.2-4.12,4.71-3,3-4.55,4.39-3.24,2.76-5,4-3.52,2.51-5.38,3.67l-.68.42-.68.42-.69.43-.71.43-.71.43-.74.45-.75.45-.77.47-.8.48-.82.49-.86.52-.89.53-.92.56-1,.58-1,.61-1.06.64c.79.24,1.55.49,2.31.75s1.49.54,2.22.82,1.44.58,2.15.88,1.39.61,2.07.93,1.35.65,2,1,1.31.68,2,1,1.27.71,1.89,1.07,1.24.73,1.85,1.1,1.21.75,1.8,1.13,1.19.76,1.77,1.15l1.74,1.17,1.72,1.18,1.71,1.19,1.69,1.19,1.69,1.19,1.69,1.18c.39.23.78.46,1.15.71s.74.5,1.1.77,1.19,1,2,1.72,1.63,1.48,1.94,1.8.61.63.92,1l.89,1,.89,1,.88,1c.3.33.59.67.89,1l.89,1,.9,1,.93.95c.32.31,1.92,2.26,3.67,4.56a58,58,0,0,1,4.57,6.69c.9,1.73,1.74,3.53,2.51,5.38s1.47,3.78,2.1,5.74,1.18,4,1.67,6,.9,4.15,1.24,6.28.62,4.29.83,6.47.33,4.39.39,6.6.05,4.45,0,6.68-.24,4.46-.47,6.69-.52,4.45-.89,6.65-.82,4.39-1.33,6.55-1.11,4.3-1.77,6.41-1.39,4.16-2.2,6.19-1.68,4-2.63,5.92-2,3.8-3.08,5.6l-.24.39-.23.39-.23.39-.23.39-.23.39-.23.4-.22.39-.23.39-.22.4-.23.39-.22.4-.23.39-.22.39-.23.4-.22.39c-.08.13-.16.26-.23.39-.55.78-1.12,1.55-1.7,2.31s-1.18,1.51-1.79,2.25-1.24,1.47-1.88,2.18-1.28,1.42-1.94,2.11-1.33,1.36-2,2-1.37,1.28-2.07,1.89-1.4,1.21-2.11,1.78-1.44,1.11-2.16,1.62-1.46,1-2.2,1.48-1.48.91-2.24,1.32-1.52.81-2.3,1.18-4,1.67-4.85,2-4.34,1.24-5.26,1.45-6.54,1.71-8.41,2.22-3.73,1-5.6,1.37-3.74.78-5.62,1.11-3.76.62-5.64.87-3.76.47-5.65.66-3.78.34-5.67.47-3.78.23-5.68.31-3.79.13-5.68.17-3.8.07-5.7.08-3.8,0-5.7,0l-5.7-.05-5.71-.08-5.71-.07-5.7,0c-1.9,0-3.8,0-5.7,0s-3.8.05-5.7.1c-.45,0-.88,0-1.29,0s-.81,0-1.19-.09-.73-.09-1.06-.16a9.16,9.16,0,0,1-1-.25c-.3-.1-.58-.21-.85-.33a6.12,6.12,0,0,1-.76-.41,4.71,4.71,0,0,1-.66-.49,5.11,5.11,0,0,1-.57-.57,5.26,5.26,0,0,1-.49-.65,6.44,6.44,0,0,1-.4-.73,7.18,7.18,0,0,1-.32-.81c-.1-.29-.18-.59-.26-.9s-.13-.63-.18-1-.08-.69-.11-1.05,0-.74-.06-1.13,0-.79,0-1.21l.06-2.49c0-.83,0-1.66,0-2.49l.06-2.49c0-.83,0-1.66,0-2.49s0-1.66,0-2.49,0-1.66,0-2.49l0-2.5c0-.83,0-1.66,0-2.49s0-1.66,0-2.49V288.4c0-.83,0-1.66,0-2.49l0-2.49c0-.83,0-1.66,0-2.49l-.06-2.49c0-.83,0-1.66-.08-2.49s-.06-1.65-.1-2.48c0-.56,0-1.09,0-1.59s0-1,.09-1.44a12.45,12.45,0,0,1,.2-1.29,9.65,9.65,0,0,1,.3-1.15,8,8,0,0,1,.9-1.92,5.77,5.77,0,0,1,.6-.78,6.13,6.13,0,0,1,.69-.66,6.26,6.26,0,0,1,.79-.56,8.13,8.13,0,0,1,.88-.46,9.1,9.1,0,0,1,1-.37,10.93,10.93,0,0,1,1.06-.28c.36-.08.74-.15,1.14-.2s.8-.1,1.22-.13.85-.05,1.3-.06h1.38l1.66,0,1.66,0,1.66,0,1.66,0,1.66,0,1.67,0,1.66,0,1.66,0h5l1.66,0c.55,0,1.11,0,1.66,0l1.66,0,1.65-.06,1.66-.08c1.45-.07,2.86-.2,4.24-.37s2.71-.4,4-.68,2.57-.6,3.8-1,2.42-.8,3.57-1.27a36.17,36.17,0,0,0,3.33-1.55c1.07-.56,2.09-1.17,3.08-1.82a33,33,0,0,0,2.84-2.09,33.72,33.72,0,0,0,4.9-5,34.43,34.43,0,0,0,2.06-2.85c.63-1,1.23-2,1.77-3.08s1-2.17,1.5-3.32.85-2.32,1.2-3.54.66-2.46.91-3.75.46-2.61.61-4,.25-2.75.3-4.17c.06-1.69.06-3.34,0-5s-.13-3.17-.28-4.69-.33-3-.57-4.43-.54-2.83-.88-4.17-.73-2.65-1.16-3.91-.93-2.47-1.46-3.64-1.12-2.29-1.75-3.37a33.9,33.9,0,0,0-7-8.46,33.35,33.35,0,0,0-2.89-2.25,34.92,34.92,0,0,0-3.16-2,37.79,37.79,0,0,0-3.44-1.68c-1.2-.51-2.44-1-3.72-1.39s-2.62-.78-4-1.09-2.8-.58-4.26-.8l-.92-.13-.91-.11-.92-.09c-.31,0-.61-.07-.92-.09l-.92-.09-.92-.07c-.3,0-4.14-.23-8-.42s-7.92-.36-8.56-.31a11.19,11.19,0,0,1-1.5,0,11.23,11.23,0,0,0-1.5,0c-.65.07-1.46.12-2.26.15l-2.21.1c-.61,0-1.21.05-1.8,0s-1.16,0-1.71-.08a13.38,13.38,0,0,1-1.6-.24,9.51,9.51,0,0,1-1.46-.43,7.17,7.17,0,0,1-1.3-.65,6.17,6.17,0,0,1-1.12-.92,6.32,6.32,0,0,1-.92-1.21,7.69,7.69,0,0,1-.69-1.53,16.21,16.21,0,0,1-.53-2.36c-.14-.82-.25-1.63-.4-2.42s-.19-5.35-.16-10,.1-9.2.16-10,.06-4.1.06-7.36,0-6.51.06-7.33a6.9,6.9,0,0,1,.14-1.08,5.29,5.29,0,0,1,.28-.9,5,5,0,0,1,.4-.72,4,4,0,0,1,.52-.57,2.85,2.85,0,0,1,.6-.43,5.37,5.37,0,0,1,.69-.31,5.88,5.88,0,0,1,.75-.19,6.88,6.88,0,0,1,.81-.11l.85,0,.87,0,.88,0,.89,0a6.32,6.32,0,0,0,.87,0c.28,0,.56,0,.84,0s.64,0,1,0h.58"/><path class="cls-2" d="M94.43,365c12.78,6.74,26.77,5.53,40.32,5.16,11.38-.3,15.1,4.06,13.71,14.65a68.55,68.55,0,0,0-.08,8.84c-.07,41.42-.07,41.42-41.92,40.21-61.27-1.76-98-34.94-103.73-96.2-5.27-56.36-1.06-113-2.31-169.48-.14-6.19,2.15-9,8.5-8.94,16.22.15,32.45.3,48.66-.08,10.86-.26,9.83,7,9.83,14,0,44.73-.12,89.47.07,134.2,0,10.19-1,20.64,3.63,30.33C75.36,349.77,83.68,358.42,94.43,365Z"/></g></g></svg>